<svg width="24" height="24" viewBox="0 0 24 24" fill="none" xmlns="http://www.w3.org/2000/svg">
<path d="M10.9983 1.98999C6.02828 1.98999 1.98828 6.02999 1.98828 11C1.98828 15.97 6.02828 20.01 10.9983 20.01C15.9683 20.01 20.0083 15.97 20.0083 11C20.0083 6.02999 15.9683 1.98999 10.9983 1.98999ZM14.1783 11.56C13.6183 13.34 11.6683 14.31 10.9983 14.31C10.3083 14.31 8.39828 13.38 7.81828 11.56C7.43828 10.37 7.86828 8.81999 9.22828 8.38999C9.84828 8.18999 10.5083 8.30999 10.9983 8.67999C11.4783 8.30999 12.1483 8.18999 12.7783 8.38999C14.1283 8.82999 14.5583 10.38 14.1783 11.56Z" fill="#171717"/>
<path d="M21.992 18.95C21.662 18.34 20.962 18 20.022 18C19.312 18 18.702 18.29 18.342 18.79C17.982 19.29 17.902 19.96 18.122 20.63C18.552 21.93 19.302 22.22 19.712 22.27C19.772 22.28 19.832 22.28 19.902 22.28C20.342 22.28 21.022 22.09 21.682 21.1C22.212 20.33 22.312 19.56 21.992 18.95Z" fill="#171717"/>
</svg>
