<svg width="24" height="24" viewBox="0 0 24 24" fill="none" xmlns="http://www.w3.org/2000/svg">
<path d="M16.1411 2.96004L7.11109 5.96004C1.04109 7.99004 1.04109 11.3 7.11109 13.32L9.79109 14.21L10.6811 16.89C12.7011 22.96 16.0211 22.96 18.0411 16.89L21.0511 7.87004C22.3911 3.82004 20.1911 1.61004 16.1411 2.96004ZM16.4611 8.34004L12.6611 12.16C12.5111 12.31 12.3211 12.38 12.1311 12.38C11.9411 12.38 11.7511 12.31 11.6011 12.16C11.3111 11.87 11.3111 11.39 11.6011 11.1L15.4011 7.28004C15.6911 6.99004 16.1711 6.99004 16.4611 7.28004C16.7511 7.57004 16.7511 8.05004 16.4611 8.34004Z" fill="#171717"/>
</svg>
