<svg width="34" height="35" viewBox="0 0 34 35" fill="none" xmlns="http://www.w3.org/2000/svg">
<path d="M24.5342 1.5V19.1M32.5 13.98V6.62C32.5 4.82782 32.5 3.93174 32.1527 3.24723C31.8471 2.6451 31.3598 2.15557 30.7601 1.84878C30.0785 1.5 29.1864 1.5 27.4019 1.5H10.3836C8.05522 1.5 6.89103 1.5 5.95073 1.92789C5.122 2.30502 4.41766 2.91187 3.92049 3.67715C3.3564 4.54542 3.17939 5.70102 2.82534 8.01219L1.99198 13.4522C1.52503 16.5005 1.29153 18.0246 1.74195 19.2106C2.13726 20.2515 2.88081 21.1219 3.84512 21.6726C4.94377 22.3 6.47928 22.3 9.55027 22.3H10.8329C11.7251 22.3 12.1712 22.3 12.512 22.4744C12.8118 22.6278 13.0556 22.8725 13.2083 23.1736C13.382 23.5158 13.382 23.9638 13.382 24.86V29.5547C13.382 31.7336 15.1407 33.5 17.3104 33.5C17.8279 33.5 18.2969 33.1939 18.5071 32.719L23.8614 20.6203C24.1048 20.0699 24.2265 19.7949 24.419 19.5931C24.5891 19.4147 24.7982 19.2784 25.0295 19.1947C25.2912 19.1 25.5911 19.1 26.1906 19.1H27.4019C29.1864 19.1 30.0785 19.1 30.7601 18.7512C31.3598 18.4445 31.8471 17.9549 32.1527 17.3528C32.5 16.6683 32.5 15.7722 32.5 13.98Z" stroke="black" stroke-width="3" stroke-linecap="round" stroke-linejoin="round"/>
</svg>
